<?xml version="1.0" encoding="UTF-8" standalone="no"?>
<svg width="38px" height="62px" viewBox="0 0 38 62" version="1.1" xmlns="http://www.w3.org/2000/svg" xmlns:xlink="http://www.w3.org/1999/xlink" xmlns:sketch="http://www.bohemiancoding.com/sketch/ns">
    <!-- Generator: Sketch 3.1 (8751) - http://www.bohemiancoding.com/sketch -->
    <title>menu_serv</title>
    <desc>Created with Sketch.</desc>
    <defs></defs>
    <g id="Page-1" stroke="none" stroke-width="1" fill="none" fill-rule="evenodd" sketch:type="MSPage">
        <g id="Portrait" sketch:type="MSArtboardGroup" transform="translate(-50.000000, -192.000000)" stroke="#E4E4E4" stroke-width="2">
            <g id="menu_serv" sketch:type="MSLayerGroup" transform="translate(51.000000, 193.000000)">
                <path d="M24,8 L36,8 L36,40.3 L30,58 L24,40.3 L24,8 Z" id="Shape" sketch:type="MSShapeGroup"></path>
                <path d="M24.4,41.4 L28,38 L32,42 L36,38" id="Shape" sketch:type="MSShapeGroup"></path>
                <path d="M28,52 L32,52" id="Shape" sketch:type="MSShapeGroup"></path>
                <path d="M28,34 L28,12" id="Shape" sketch:type="MSShapeGroup"></path>
                <rect id="Rectangle-path" sketch:type="MSShapeGroup" x="0" y="0" width="14" height="58"></rect>
                <path d="M6,32 L14,32" id="Shape" sketch:type="MSShapeGroup"></path>
                <path d="M10,26 L14,26" id="Shape" sketch:type="MSShapeGroup"></path>
                <path d="M6,20 L14,20" id="Shape" sketch:type="MSShapeGroup"></path>
                <path d="M6,8 L14,8" id="Shape" sketch:type="MSShapeGroup"></path>
                <path d="M10,14 L14,14" id="Shape" sketch:type="MSShapeGroup"></path>
                <path d="M8,50 L14,50" id="Shape" sketch:type="MSShapeGroup"></path>
                <path d="M6,44 L14,44" id="Shape" sketch:type="MSShapeGroup"></path>
                <path d="M10,38 L14,38" id="Shape" sketch:type="MSShapeGroup"></path>
                <path d="M24,8 L24,3 C24,1.3 25.3,0 27,0 L33,0 C34.7,0 36,1.3 36,3 L36,8" id="Shape" sketch:type="MSShapeGroup"></path>
            </g>
        </g>
    </g>
</svg>