<?xml version="1.0" encoding="UTF-8" standalone="no"?>
<svg width="56px" height="40px" viewBox="0 0 56 40" version="1.1" xmlns="http://www.w3.org/2000/svg" xmlns:xlink="http://www.w3.org/1999/xlink" xmlns:sketch="http://www.bohemiancoding.com/sketch/ns">
    <!-- Generator: Sketch 3.1 (8751) - http://www.bohemiancoding.com/sketch -->
    <title>menu_cont</title>
    <desc>Created with Sketch.</desc>
    <defs></defs>
    <g id="Page-1" stroke="none" stroke-width="1" fill="none" fill-rule="evenodd" sketch:type="MSPage">
        <g id="Portrait" sketch:type="MSArtboardGroup" transform="translate(-41.000000, -380.000000)" stroke="#E4E4E4" stroke-width="2">
            <g id="menu_cont" sketch:type="MSLayerGroup" transform="translate(42.000000, 381.000000)">
                <path d="M51,0 L3,0 C1.3,0 0,1.3 0,3 L0,35 C0,36.7 1.3,38 3,38 L51,38 C52.7,38 54,36.7 54,35 L54,3 C54,1.3 52.7,0 51,0 L51,0 Z" id="Shape" sketch:type="MSShapeGroup"></path>
                <path d="M1,0.8 L24.9,24.7 C26.1,25.9 28,25.9 29.1,24.7 L53,0.7" id="Shape" sketch:type="MSShapeGroup"></path>
                <path d="M1,37 L16,22" id="Shape" sketch:type="MSShapeGroup"></path>
                <path d="M38,22 L53,37" id="Shape" sketch:type="MSShapeGroup"></path>
            </g>
        </g>
    </g>
</svg>