<?xml version="1.0" encoding="UTF-8" standalone="no"?>
<svg width="124px" height="124px" viewBox="0 0 124 124" version="1.1" xmlns="http://www.w3.org/2000/svg" xmlns:xlink="http://www.w3.org/1999/xlink" xmlns:sketch="http://www.bohemiancoding.com/sketch/ns">
    <!-- Generator: Sketch 3.1 (8751) - http://www.bohemiancoding.com/sketch -->
    <title>Google + 2@1x</title>
    <desc>Created with Sketch.</desc>
    <defs></defs>
    <g id="Page-1" stroke="none" stroke-width="1" fill="none" fill-rule="evenodd" sketch:type="MSPage">
        <g id="Inicio-" sketch:type="MSArtboardGroup" transform="translate(-465.000000, -2413.000000)">
            <g id="Google-+-2" sketch:type="MSLayerGroup" transform="translate(465.000000, 2413.000000)">
                <path d="M0.233938217,61.4754098 C0.233938217,27.5234768 27.7971888,0 61.7981854,0 C95.7991819,0 123.362432,27.5234768 123.362432,61.4754098 C123.362432,95.4273429 95.7991819,122.95082 61.7981854,122.95082 C27.7971888,122.95082 0.233938217,95.4273429 0.233938217,61.4754098 Z" id="Google-+" fill="#D34836" sketch:type="MSShapeGroup"></path>
                <path d="M121.449515,47.3243852 L106.890816,47.3243852 L106.890816,63.4775164 L100.028463,63.4775164 L100.028463,47.3243852 L84.0163934,47.3243852 L84.0163934,40.601373 L100.028463,40.601373 L100.028463,24.5901639 L106.890816,24.5901639 L106.890816,40.601373 L119.115103,40.601373 C120.01797,42.7820486 120.798967,45.0259846 121.449515,47.3243852 Z" id="Shape" fill="#FFFFFF" sketch:type="MSShapeGroup"></path>
                <path d="M17.1465392,101.260586 C18.8679844,98.3699034 21.5372164,95.5279168 25.4915225,93.1924643 C34.413798,87.7335251 46.4305044,87.0125332 52.9288091,86.6005378 C50.917429,84.0255665 48.5966059,81.2960969 48.5966059,76.8156469 C48.5966059,74.3951739 49.3186398,72.95319 50.0406736,71.2537089 C48.4418844,71.4082072 46.894669,71.5627055 45.4506013,71.5627055 C30.2363165,71.5627055 21.623484,60.2328318 21.623484,49.0574565 C21.623484,42.46553 24.666341,35.1423116 30.8036288,29.8430207 C39.0038704,23.1120458 48.7513275,21.9636086 56.4874045,21.9636086 L86.0392187,21.9636086 L76.859074,27.1187011 L67.9883723,27.1187011 C71.2890985,29.8430207 78.1484201,35.5749068 78.1484201,46.4824852 C78.1484201,57.0913669 72.1142801,62.0868112 66.1317138,66.8247583 C64.2234815,68.6787376 62.1089538,70.6872152 62.1089538,73.8286802 C62.1089538,76.9701452 64.2234815,78.7211256 65.8222708,80.0086113 L70.9796554,84.0255665 C77.3232386,89.2785079 83.0479356,94.1709533 83.0479356,104.058843 C83.0479356,110.57954 80.0005268,117.124292 74.0628772,122.146938 C70.8681275,122.667036 67.5907818,122.941598 64.2509007,122.950591 C70.2801257,120.309648 73.4036262,115.477616 73.4036262,109.67228 C73.4036262,102.359362 68.7104062,98.4969051 57.7767507,90.7204918 C56.642126,90.617493 55.9200922,90.617493 54.4760245,90.617493 C53.1866783,90.617493 45.4506013,90.8749901 39.4164612,92.8834677 C36.2704565,94.0164551 27.0903118,97.4669166 27.0903118,107.663803 C27.0903118,108.771955 27.2084505,109.846314 27.4389481,110.881042 C12.3173188,99.6797703 18.8679846,101.260588 17.1465392,101.260586 Z M65.5128277,53.0744117 C65.5128277,42.7230271 59.3755399,26.6912559 47.4619813,26.6912559 C43.7486643,26.6912559 39.7259043,28.5555351 37.4050812,31.4240531 C34.9811104,34.4316196 34.2590765,38.2940765 34.2590765,42.0020351 C34.2590765,51.6324277 39.829052,67.5457503 52.2067752,67.5457503 C55.7653706,67.5457503 59.6334091,65.7947698 61.9542322,63.5287951 C65.2549584,60.2328318 65.5128277,55.6493829 65.5128277,53.0744117 Z" id="Path" fill="#FFFFFF" sketch:type="MSShapeGroup"></path>
                <path d="M123.498695,61.8454692 C123.498695,95.7974022 95.9354446,123.320879 61.9344481,123.320879 C49.3242839,123.320879 37.5996267,119.535046 27.8384171,113.039681 L98.3805449,12.295082 C113.613666,23.4861461 123.498695,41.5130866 123.498695,61.8454692 Z" id="reflec" fill-opacity="0.08" fill="#000000" sketch:type="MSShapeGroup"></path>
            </g>
        </g>
    </g>
</svg>