<?xml version="1.0" encoding="UTF-8" standalone="no"?>
<svg width="126px" height="125px" viewBox="0 0 126 125" version="1.1" xmlns="http://www.w3.org/2000/svg" xmlns:xlink="http://www.w3.org/1999/xlink" xmlns:sketch="http://www.bohemiancoding.com/sketch/ns">
    <!-- Generator: Sketch 3.1 (8751) - http://www.bohemiancoding.com/sketch -->
    <title>Twitter 2@1x</title>
    <desc>Created with Sketch.</desc>
    <defs></defs>
    <g id="Page-1" stroke="none" stroke-width="1" fill="none" fill-rule="evenodd" sketch:type="MSPage">
        <g id="Inicio-" sketch:type="MSArtboardGroup" transform="translate(-53.000000, -2410.000000)">
            <g id="Twitter-2" sketch:type="MSLayerGroup" transform="translate(53.000000, 2410.000000)">
                <path d="M0,62.5 C0,27.9822014 28.0226381,0 62.5903179,0 C97.1579977,0 125.180636,27.9822014 125.180636,62.5 C125.180636,97.0177986 97.1579977,125 62.5903179,125 C28.0226381,125 0,97.0177986 0,62.5 Z" id="Twitter" fill="#4099FF" sketch:type="MSShapeGroup"></path>
                <path d="M61.0411822,49.76662 L61.1723346,51.929261 L58.9864617,51.6644478 C51.0298843,50.6493306 44.0788085,47.2067592 38.1769516,41.4250047 L35.2915994,38.5561952 L34.5484026,40.6747007 C32.9745741,45.3972025 33.9800757,50.3845174 37.258885,53.7388178 C39.0075833,55.5925101 38.6141262,55.8573232 35.5976216,54.753935 C34.5484026,54.4008507 33.630336,54.1360375 33.5429011,54.2684441 C33.2368789,54.5773928 34.2860979,58.5937261 35.1167296,60.1826052 C36.2533835,62.3893818 38.5704087,64.5520228 41.1060213,65.8319532 L43.2481768,66.8470704 L40.7125642,66.8912059 C38.2643865,66.8912059 38.1769516,66.9353414 38.4392564,67.8621876 C39.3136055,70.7309971 42.7672847,73.7763487 46.614421,75.1004146 L49.3249034,76.0272608 L46.9641607,77.4395977 C43.4667641,79.4698321 39.357323,80.6173559 35.2478819,80.705627 C33.2805963,80.7497625 31.6630504,80.9263047 31.6630504,81.0587112 C31.6630504,81.5000666 36.9965803,83.9716563 40.1005198,84.9426379 C49.4123384,87.8114474 60.4728552,86.5756526 68.7791723,81.6766087 C74.6810291,78.1899018 80.582886,71.2606234 83.3370858,64.5520228 C84.8234794,60.9770448 86.309873,54.4449863 86.309873,51.3113636 C86.309873,49.2811292 86.4410254,49.016316 88.889203,46.5888618 C90.3318791,45.1765248 91.6871203,43.6317812 91.9494251,43.1904259 C92.3865997,42.3518509 92.3428822,42.3518509 90.1132918,43.1021549 C86.3973079,44.4262208 85.8726984,44.2496787 87.7088316,42.2635798 C89.0640728,40.8512428 90.6816188,38.291382 90.6816188,37.541078 C90.6816188,37.4086714 90.0258569,37.6293491 89.2826601,38.0265688 C88.4957459,38.4679242 86.7470476,39.1299571 85.4355238,39.5271769 L83.0747811,40.2774809 L80.9326256,38.8210084 C79.7522543,38.0265688 78.0909909,37.1438582 77.2166417,36.8790451 C74.9870513,36.2611476 71.5770896,36.3494187 69.5660865,37.0555872 C64.1014043,39.0416861 60.6477251,44.1614076 61.0411822,49.76662 Z" id="Path" fill="#FFFFFF" sketch:type="MSShapeGroup"></path>
                <path d="M125.180636,62.5 C125.180636,97.0177986 97.1579977,125 62.5903179,125 C49.7699843,125 37.8499162,121.151069 27.9260197,114.547449 L99.6438496,12.123773 C115.130856,23.5013548 125.180636,41.8287443 125.180636,62.5 Z" id="reflec" fill-opacity="0.08" fill="#000000" sketch:type="MSShapeGroup"></path>
            </g>
        </g>
    </g>
</svg>